<svg version="1.0" xmlns="http://www.w3.org/2000/svg" width="32.000000pt" height="32.000000pt" viewBox="0 0 737.000000 589.000000" preserveAspectRatio="xMidYMid meet"><g transform="translate(0.000000,589.000000) scale(0.100000,-0.100000)" fill="#a1a3f1" stroke="none"><path d="M3510 5773 c-86 -5 -257 -32 -344 -54 -333 -84 -617 -248 -851 -490
   -207 -215 -347 -442 -435 -709 -159 -479 -126 -976 95 -1426 85 -174 146 -268
   278 -426 144 -174 222 -283 281 -398 65 -126 102 -226 111 -301 4 -31 10 -61
   13 -66 10 -16 199 -25 208 -11 19 31 4 139 -34 256 -84 250 -161 383 -356 617
   -133 159 -203 260 -269 390 -128 251 -184 461 -194 725 -4 120 -2 166 16 270
   33 195 106 419 175 535 196 333 412 542 722 698 296 149 716 198 1029 121 344
   -85 608 -239 839 -487 170 -182 268 -343 346 -572 53 -153 67 -222 80 -387 23
   -279 -20 -519 -142 -798 -61 -139 -159 -291 -310 -476 -187 -230 -227 -290
   -286 -434 -71 -176 -143 -434 -127 -460 3 -6 51 -10 110 -10 l104 0 11 43 c41
   161 114 347 179 457 46 76 145 210 247 332 102 123 161 213 237 363 105 210
   172 442 207 715 29 223 -25 579 -126 833 -98 248 -295 525 -497 697 -196 168
   -465 316 -692 380 -191 54 -454 85 -625 73z"></path><path d="M3441 5236 c-8 -9 -11 -71 -9 -202 l3 -188 25 -6 c25 -6 25 -7 34
   -153 5 -81 7 -150 4 -153 -3 -3 -41 30 -84 73 -44 43 -104 102 -135 130 l-56
   52 1 64 c2 105 -2 107 -201 107 -217 0 -203 14 -203 -210 0 -171 0 -171 26
   -197 l26 -26 162 7 161 6 148 -141 147 -141 0 -350 c-1 -192 -3 -355 -7 -363
   -8 -23 -20 -18 -66 28 -23 24 -80 79 -127 122 -275 256 -325 301 -344 315 -12
   9 -53 17 -101 20 l-80 5 -3 45 c-2 27 -9 50 -19 58 -23 17 -344 17 -361 0 -17
   -17 -17 -369 0 -386 15 -15 320 -17 348 -2 10 5 21 23 25 40 6 28 10 30 50 30
   40 0 50 -6 112 -62 37 -35 92 -85 122 -113 30 -27 142 -133 248 -234 l193
   -184 0 -79 c0 -75 -1 -78 -26 -84 -14 -4 -71 -3 -127 2 -99 9 -102 10 -105 34
   -8 76 7 70 -183 70 -98 0 -178 -4 -190 -10 -18 -10 -19 -23 -19 -190 0 -149 3
   -181 16 -194 13 -13 43 -16 168 -16 140 0 156 2 180 21 15 12 26 30 26 45 l0
   24 130 0 130 0 0 -474 c0 -261 3 -477 8 -480 4 -2 54 -6 112 -7 l105 -3 3 482
   2 482 150 0 150 0 0 -53 c0 -54 0 -54 -42 -70 l-41 -17 7 -182 c4 -111 11
   -188 18 -196 17 -19 337 -13 361 7 15 12 17 38 17 191 0 199 -4 210 -72 210
   l-35 0 -7 92 c-3 50 -6 124 -6 163 0 50 -4 74 -12 77 -7 2 -122 2 -256 -1
   l-242 -6 2 365 3 365 78 3 c53 2 82 -1 91 -10 7 -7 78 -74 157 -147 79 -74
   204 -194 277 -266 l132 -131 0 -65 c0 -98 2 -99 197 -99 209 0 196 -14 201
   209 l4 167 -26 12 c-17 8 -81 12 -180 12 l-152 0 -124 118 c-69 64 -148 140
   -177 167 l-54 50 156 -3 c152 -3 155 -3 155 -25 0 -12 4 -27 8 -34 11 -17 357
   -20 378 -3 11 10 14 47 14 191 0 224 14 209 -193 209 -185 0 -207 -9 -207 -81
   0 -26 -5 -38 -17 -41 -10 -3 -177 -3 -370 0 l-353 5 0 73 0 74 260 0 260 0 0
   175 0 175 25 0 c14 0 37 7 50 16 l25 16 0 189 c0 176 -1 189 -19 199 -11 6
   -91 10 -189 10 -136 0 -172 -3 -182 -14 -9 -11 -10 -63 -3 -213 l8 -197 33
   -10 c31 -9 32 -10 32 -67 l0 -59 -145 0 -145 0 0 209 0 209 32 6 c58 11 58 12
   58 217 0 176 -1 189 -19 199 -31 16 -326 13 -340 -4z"></path><path d="M877 5053 c-4 -3 -7 -230 -7 -503 l0 -497 -127 -51 c-71 -28 -204
   -81 -298 -117 -93 -37 -180 -73 -193 -81 -22 -15 -22 -17 -20 -191 3 -144 6
   -177 18 -184 8 -4 78 -31 155 -59 77 -28 213 -78 302 -112 l162 -60 5 -37 c3
   -20 2 -229 -2 -466 -4 -236 -6 -433 -4 -437 1 -4 136 -6 300 -5 l297 2 0 130
   0 130 -179 3 -178 2 7 423 c7 406 7 423 -11 439 -11 9 -84 39 -164 67 -80 27
   -211 75 -292 105 -81 31 -152 56 -158 56 -5 0 -10 4 -10 9 0 9 69 40 135 61
   22 7 87 32 145 56 58 23 148 59 200 79 52 20 106 42 120 48 l25 13 3 462 2
   462 175 0 176 0 -3 128 -3 127 -286 3 c-157 1 -288 -1 -292 -5z"></path><path d="M5780 4930 l0 -130 170 0 170 0 0 -464 0 -464 28 -9 c443 -159 621
   -232 599 -244 -14 -9 -399 -153 -539 -203 -43 -16 -79 -33 -80 -40 0 -6 -2
   -202 -2 -435 l-2 -424 -172 2 -172 3 0 -136 0 -136 293 2 292 3 3 473 2 473
   43 18 c23 10 159 62 302 116 143 53 270 101 283 106 21 8 22 13 22 126 0 65
   -3 142 -7 172 l-6 54 -71 32 c-75 34 -480 196 -531 212 l-30 10 3 488 c3 448
   2 489 -14 506 -16 18 -36 19 -301 19 l-283 0 0 -130z"></path><path d="M2774 1612 c-10 -2 -34 -18 -51 -35 -27 -26 -33 -38 -33 -74 0 -56
   21 -97 57 -112 20 -8 270 -12 883 -14 803 -2 857 -1 881 16 67 45 64 155 -5
   200 -21 14 -113 16 -868 19 -465 2 -853 1 -864 0z"></path><path d="M2837 1079 c-32 -26 -37 -36 -37 -73 0 -50 32 -104 71 -123 20 -10
   198 -13 759 -13 809 -1 759 -4 800 63 32 51 26 103 -14 143 l-34 34 -754 0
   -753 0 -38 -31z"></path><path d="M3125 611 c-9 -16 61 -116 112 -160 75 -65 194 -120 285 -131 94 -11
   212 1 290 30 66 25 191 104 229 146 36 40 79 110 72 118 -11 10 -981 7 -988
   -3z"></path></g></svg>